<?xml version="1.0" encoding="UTF-8"?>
<svg width="52px" height="43px" viewBox="0 0 52 43" version="1.1" xmlns="http://www.w3.org/2000/svg" xmlns:xlink="http://www.w3.org/1999/xlink">
    <!-- Generator: Sketch 55.2 (78181) - https://sketchapp.com -->
    <title>Benefit One Icon</title>
    <desc>Created with Sketch.</desc>
    <g id="Page-1" stroke="none" stroke-width="1" fill="none" fill-rule="evenodd">
        <g id="Desktop" transform="translate(-187.000000, -641.000000)" fill-rule="nonzero">
            <g id="Benefit-Section" transform="translate(104.000000, 639.000000)">
                <g id="Benefit-One" transform="translate(0.000000, 2.000000)">
                    <g id="Benefit-One-Icon" transform="translate(83.000000, 0.000000)">
                        <path d="M31.0852277,13.2307692 C28.2359086,13.2307692 26.0004153,16.3691999 26.0004153,16.3691999 C26.0004153,16.3691999 23.8917592,13.2307692 20.9143563,13.2307692 C18.0183952,13.2307692 15.6535715,15.5903133 15.4987906,18.4472571 C15.4116355,20.0612661 15.9383061,21.2895262 16.6803195,22.4020307 C18.1632036,24.6246796 26.0098683,29.7692308 26.0098683,29.7692308 C26.0098683,29.7692308 33.8270312,24.6441774 35.3197839,22.4020307 C36.0633556,21.2844978 36.5886757,20.0611635 36.501105,18.4472571 C36.3463241,15.5903133 33.9813966,13.2307692 31.0852277,13.2307692" id="Path" fill="#FFBDBC"></path>
                        <path d="M50.984375,33.463533 L50.0314141,33.463533 L50.0314141,4.22038915 C50.0314141,1.94179481 48.1749531,0.0880283019 45.8930469,0.0880283019 L6.10695312,0.0880283019 C3.82504687,0.0880283019 1.96858594,1.94179481 1.96858594,4.22038915 L1.96858594,33.4636344 L1.015625,33.4636344 C0.454695313,33.4636344 0,33.9176698 0,34.4777854 L0,38.2713184 C0,40.8302241 2.08477344,42.9120731 4.64739844,42.9120731 L47.3525,42.9120731 C49.915125,42.9120731 52,40.8303255 52,38.2714198 L52,34.4778868 C52,33.9175684 51.5452031,33.463533 50.984375,33.463533 Z M6.10695313,2.11633019 L45.8930469,2.11633019 C47.0549219,2.11633019 48.0001641,3.06020047 48.0001641,4.22028774 L48.0001641,7.04337972 L3.99983594,7.04337972 L3.99983594,4.22038915 C3.99983594,3.06020047 4.94507813,2.11633019 6.10695313,2.11633019 Z M3.99983594,9.0716816 L48.0001641,9.0716816 L48.0001641,33.463533 L33.3513984,33.463533 C32.7905703,33.463533 32.3357734,33.9175684 32.3357734,34.477684 C32.3357734,35.1254222 31.8080547,35.6522736 31.159375,35.6522736 L20.840625,35.6522736 C20.1919453,35.6522736 19.6642266,35.1253208 19.6642266,34.477684 C19.6642266,33.9175684 19.2095313,33.463533 18.6486016,33.463533 L3.99983594,33.463533 L3.99983594,9.0716816 Z M49.96875,38.2713184 C49.96875,39.7118184 48.7950937,40.8836698 47.3525,40.8836698 L4.64739844,40.8836698 C3.20480469,40.8836698 2.03125,39.711717 2.03125,38.271217 L2.03125,35.4918349 L17.7977109,35.4918349 C18.2235625,36.7623632 19.4267734,37.6805755 20.8405234,37.6805755 L31.1592734,37.6805755 C32.573125,37.6805755 33.7763359,36.7623632 34.2021875,35.4918349 L49.96875,35.4918349 L49.96875,38.2713184 Z" id="Shape" fill="#020288"></path>
                        <path d="M25.4295234,5.47428538 L26.5704766,5.47428538 C27.1313047,5.47428538 27.5861016,5.02025 27.5861016,4.46013443 C27.5861016,3.90001887 27.1313047,3.44598349 26.5704766,3.44598349 L25.4295234,3.44598349 C24.8685937,3.44598349 24.4138984,3.90001887 24.4138984,4.46013443 C24.4138984,5.02025 24.8685937,5.47428538 25.4295234,5.47428538 Z" id="Path" fill="#020288"></path>
                        <path d="M41.3473125,20.6606887 L42.4153438,20.6606887 C42.9761719,20.6606887 43.4309688,20.2066533 43.4309688,19.6465377 C43.4309688,19.0864222 42.9761719,18.6323868 42.4153438,18.6323868 L41.3473125,18.6323868 C40.7864844,18.6323868 40.3316875,19.0864222 40.3316875,19.6465377 C40.3316875,20.2066533 40.7864844,20.6606887 41.3473125,20.6606887 Z" id="Path" fill="#020288"></path>
                        <path d="M38.7825547,14.9160307 C39.0425547,14.9160307 39.3024531,14.8169481 39.5007031,14.6189858 L40.2558203,13.8649646 C40.6524219,13.4689387 40.6524219,12.8267783 40.2558203,12.4307524 C39.8591172,12.0347264 39.2160234,12.0347264 38.8194219,12.4308538 L38.0643047,13.184875 C37.6677031,13.5809009 37.6677031,14.2230613 38.0643047,14.6190873 C38.2627578,14.8169481 38.5226562,14.9160307 38.7825547,14.9160307 Z" id="Path" fill="#020288"></path>
                        <path d="M38.8195234,26.8622217 C39.017875,27.0602854 39.2777734,27.1592665 39.5376719,27.1592665 C39.7975703,27.1592665 40.0574687,27.060184 40.2558203,26.8622217 C40.6524219,26.4661958 40.6524219,25.8240354 40.2558203,25.4280094 L39.5007031,24.6739882 C39.1041016,24.2779623 38.4612109,24.2779623 38.0643047,24.6739882 C37.6677031,25.0700142 37.6677031,25.7121745 38.0643047,26.1082005 L38.8195234,26.8622217 Z" id="Path" fill="#020288"></path>
                        <path d="M10.6525859,18.6323868 L9.58465625,18.6323868 C9.02372656,18.6323868 8.56903125,19.0864222 8.56903125,19.6465377 C8.56903125,20.2066533 9.02372656,20.6606887 9.58465625,20.6606887 L10.6525859,20.6606887 C11.2135156,20.6606887 11.6682109,20.2066533 11.6682109,19.6465377 C11.6682109,19.0864222 11.2135156,18.6323868 10.6525859,18.6323868 Z" id="Path" fill="#020288"></path>
                        <path d="M12.4991953,24.6739882 L11.7440781,25.4280094 C11.3474766,25.8240354 11.3474766,26.4661958 11.7440781,26.8623231 C11.9424297,27.0603868 12.2023281,27.1593679 12.4622266,27.1593679 C12.722125,27.1593679 12.982125,27.0603868 13.180375,26.8623231 L13.9354922,26.1083019 C14.3320938,25.7122759 14.3320938,25.0701156 13.9354922,24.6739882 C13.5389922,24.2779623 12.8958984,24.2779623 12.4991953,24.6739882 L12.4991953,24.6739882 Z" id="Path" fill="#020288"></path>
                        <path d="M13.1804766,12.4306509 C12.783875,12.034625 12.1407813,12.034625 11.7440781,12.4306509 C11.3474766,12.8266769 11.3474766,13.4688373 11.7440781,13.8649646 L12.4991953,14.6189858 C12.6975469,14.8170495 12.9574453,14.9160307 13.2173438,14.9160307 C13.4772422,14.9160307 13.7372422,14.8170495 13.9354922,14.6189858 C14.3320938,14.2229599 14.3320938,13.5807995 13.9354922,13.1846722 L13.1804766,12.4306509 Z" id="Path" fill="#020288"></path>
                    </g>
                </g>
            </g>
        </g>
    </g>
</svg>