<?xml version="1.0" encoding="UTF-8"?>
<svg width="52px" height="46px" viewBox="0 0 52 46" version="1.1" xmlns="http://www.w3.org/2000/svg" xmlns:xlink="http://www.w3.org/1999/xlink">
    <!-- Generator: Sketch 55.2 (78181) - https://sketchapp.com -->
    <title>Benefit Two Icon</title>
    <desc>Created with Sketch.</desc>
    <g id="Page-1" stroke="none" stroke-width="1" fill="none" fill-rule="evenodd">
        <g id="Desktop" transform="translate(-481.000000, -639.000000)" fill-rule="nonzero">
            <g id="Benefit-Section" transform="translate(104.000000, 639.000000)">
                <g id="Benefit-Two" transform="translate(291.000000, 0.000000)">
                    <g id="Benefit-Two-Icon" transform="translate(86.000000, 0.000000)">
                        <path d="M48.2720469,0.0485219298 L3.72795312,0.0485219298 C1.67232813,0.0485219298 0,1.71309649 0,3.7591886 L0,42.8811798 C0,44.5741009 1.38135156,45.9514781 3.07907031,45.9514781 L48.9208281,45.9514781 C50.6186484,45.9514781 51.9998984,44.5742018 51.9998984,42.8811798 L51.9998984,3.7591886 C51.9998984,1.71309649 50.3276719,0.0485219298 48.2720469,0.0485219298 Z M2.03125,3.7591886 C2.03125,2.82567105 2.79235937,2.06616667 3.72795312,2.06616667 L48.2720469,2.06616667 C49.2076406,2.06616667 49.96875,2.82567105 49.96875,3.7591886 L49.96875,9.75452193 L2.03125,9.75452193 L2.03125,3.7591886 Z M49.96875,42.8811798 C49.96875,43.4616272 49.4987187,43.9339342 48.9209297,43.9339342 L3.07907031,43.9339342 C2.50117969,43.9339342 2.03125,43.4616272 2.03125,42.8811798 L2.03125,11.7719649 L49.96875,11.7719649 L49.96875,42.8811798 Z" id="Shape" fill="#020288"></path>
                        <path d="M33.4113203,4.90152193 L32.0469297,4.90152193 C31.4861016,4.90152193 31.0313047,5.35325 31.0313047,5.91029386 C31.0313047,6.46733772 31.4861016,6.91906579 32.0469297,6.91906579 L33.4113203,6.91906579 C33.9721484,6.91906579 34.4269453,6.46733772 34.4269453,5.91029386 C34.4269453,5.35314912 33.9721484,4.90152193 33.4113203,4.90152193 Z" id="Path" fill="#020288"></path>
                        <path d="M39.7215,4.90152193 L38.3572109,4.90152193 C37.7963828,4.90152193 37.3415859,5.35325 37.3415859,5.91029386 C37.3415859,6.46733772 37.7963828,6.91906579 38.3572109,6.91906579 L39.7215,6.91906579 C40.2824297,6.91906579 40.737125,6.46733772 40.737125,5.91029386 C40.737125,5.35314912 40.2824297,4.90152193 39.7215,4.90152193 Z" id="Path" fill="#020288"></path>
                        <path d="M46.0317812,4.90152193 L44.6674922,4.90152193 C44.1066641,4.90152193 43.6518672,5.35325 43.6518672,5.91029386 C43.6518672,6.46733772 44.1066641,6.91906579 44.6674922,6.91906579 L46.0317812,6.91906579 C46.5926094,6.91906579 47.0474062,6.46733772 47.0474062,5.91029386 C47.0474062,5.35314912 46.5927109,4.90152193 46.0317812,4.90152193 Z" id="Path" fill="#020288"></path>
                        <path d="M17.0844375,4.90152193 L7.23805469,4.90152193 C6.67722656,4.90152193 6.22242969,5.35325 6.22242969,5.91029386 C6.22242969,6.46733772 6.67722656,6.91906579 7.23805469,6.91906579 L17.0844375,6.91906579 C17.6452656,6.91906579 18.1000625,6.46733772 18.1000625,5.91029386 C18.1000625,5.35314912 17.6452656,4.90152193 17.0844375,4.90152193 Z" id="Path" fill="#020288"></path>
                        <circle id="Oval" fill="#E2C4FF" cx="26" cy="28.0026202" r="12.9383256"></circle>
                        <path d="M30.0298992,27.9200853 C30.756186,27.026814 31.191938,25.8883566 31.191938,24.650031 C31.191938,21.7872093 28.8629225,19.4579922 26,19.4579922 C23.1370775,19.4579922 20.808062,21.7871085 20.808062,24.650031 C20.808062,25.8880543 21.2436124,27.0262093 21.9694961,27.9193798 C20.5509845,28.689907 19.5911008,30.1965969 19.5911008,31.9004031 L19.5911008,35.3543721 C19.5911008,35.9108527 20.0423721,36.362124 20.5988527,36.362124 L31.4010465,36.362124 C31.9575271,36.362124 32.4087984,35.9108527 32.4087984,35.3543721 L32.4087984,31.9004031 C32.4087984,30.1999225 31.4481085,28.6918217 30.0298992,27.9200853 Z M26,21.4734961 C27.7514729,21.4734961 29.1764341,22.8984574 29.1764341,24.650031 C29.1764341,26.4015039 27.7514729,27.8264651 26,27.8264651 C24.2485271,27.8264651 22.8235659,26.4015039 22.8235659,24.650031 C22.8235659,22.8984574 24.2485271,21.4734961 26,21.4734961 L26,21.4734961 Z M30.3933953,34.3466202 L21.6067054,34.3466202 L21.6067054,31.9004031 C21.6067054,30.6006047 22.6131473,29.5077984 23.9032713,29.3995659 C24.5448062,29.6839535 25.2543643,29.841969 26.0001008,29.841969 C26.7458372,29.841969 27.4553953,29.6839535 28.0969302,29.3995659 C29.3859457,29.5075969 30.3934961,30.603124 30.3934961,31.9004031 L30.3934961,34.3466202 L30.3933953,34.3466202 Z" id="Shape" fill="#020288"></path>
                    </g>
                </g>
            </g>
        </g>
    </g>
</svg>