<?xml version="1.0" encoding="UTF-8"?>
<svg width="52px" height="43px" viewBox="0 0 52 43" version="1.1" xmlns="http://www.w3.org/2000/svg" xmlns:xlink="http://www.w3.org/1999/xlink">
    <!-- Generator: Sketch 55.2 (78181) - https://sketchapp.com -->
    <title>Benefit Three Icon</title>
    <desc>Created with Sketch.</desc>
    <g id="Page-1" stroke="none" stroke-width="1" fill="none" fill-rule="evenodd">
        <g id="Desktop" transform="translate(-769.000000, -641.000000)" fill-rule="nonzero">
            <g id="Benefit-Section" transform="translate(104.000000, 639.000000)">
                <g id="Benefit-Three" transform="translate(600.000000, 2.000000)">
                    <g id="Benefit-Three-Icon" transform="translate(65.000000, 0.000000)">
                        <path d="M22.9163594,26.7483325 L22.9163594,17.3078042 C22.9163594,16.7476887 22.4616641,16.2936533 21.9007344,16.2936533 L19.0790234,16.2936533 L19.0790234,15.7633538 C19.0790234,13.9011698 17.5538594,12.3860283 15.6792188,12.3860283 C13.8045781,12.3860283 12.2795156,13.9010684 12.2795156,15.7633538 L12.2795156,16.2936533 L9.47496875,16.2936533 C8.91403906,16.2936533 8.45934375,16.7476887 8.45934375,17.3078042 L8.45934375,26.7483325 C8.45934375,28.5019009 9.88802344,29.9285071 11.6441406,29.9285071 L19.7316641,29.9285071 C21.4876797,29.9285071 22.9163594,28.5019009 22.9163594,26.7483325 L22.9163594,26.7483325 Z M14.3108672,15.7634552 C14.3108672,15.0195755 14.9248125,14.4144316 15.6793203,14.4144316 C16.4339297,14.4144316 17.047875,15.0195755 17.047875,15.7634552 L17.047875,16.2937547 L14.3108672,16.2937547 L14.3108672,15.7634552 Z M10.4905938,26.7483325 L10.4905938,18.3219552 L12.2796172,18.3219552 L12.2796172,19.3381344 C12.2796172,19.8981486 12.7343125,20.3522854 13.2952422,20.3522854 C13.8561719,20.3522854 14.3108672,19.8981486 14.3108672,19.3381344 L14.3108672,18.3219552 L17.047875,18.3219552 L17.047875,19.3381344 C17.047875,19.8981486 17.5025703,20.3522854 18.0635,20.3522854 C18.6244297,20.3522854 19.079125,19.8981486 19.079125,19.3381344 L19.079125,18.3219552 L20.8852109,18.3219552 L20.8852109,26.7483325 C20.8852109,27.3834953 20.36775,27.9002052 19.7317656,27.9002052 L11.6441406,27.9002052 C11.0080547,27.9002052 10.4905938,27.3834953 10.4905938,26.7483325 Z" id="Shape" fill="#020288"></path>
                        <path d="M50.984375,33.463533 L50.0314141,33.463533 L50.0314141,4.22038915 C50.0314141,1.94179481 48.1749531,0.0880283019 45.8930469,0.0880283019 L6.10695313,0.0880283019 C3.82504688,0.0880283019 1.96858594,1.94179481 1.96858594,4.22038915 L1.96858594,33.463533 L1.015625,33.463533 C0.454695313,33.463533 0,33.9176698 0,34.477684 L0,38.271217 C0,40.8301226 2.08477344,42.9119717 4.64739844,42.9119717 L47.3525,42.9119717 C49.915125,42.9119717 51.9998985,40.8302241 51.9998985,38.271217 L51.9998985,34.477684 C51.9998985,33.9175684 51.5453047,33.463533 50.984375,33.463533 Z M6.10695313,2.11633019 L45.8930469,2.11633019 C47.0549219,2.11633019 48.0001641,3.06020047 48.0001641,4.22038915 L48.0001641,7.04337972 L3.99983594,7.04337972 L3.99983594,4.22038915 C3.99983594,3.06020047 4.94507813,2.11633019 6.10695313,2.11633019 Z M3.99983594,9.0716816 L48.0001641,9.0716816 L48.0001641,33.463533 L33.3513984,33.463533 C32.7904688,33.463533 32.3357734,33.9176698 32.3357734,34.477684 C32.3357734,35.1254222 31.8080547,35.652375 31.159375,35.652375 L20.840625,35.652375 C20.1919453,35.652375 19.6642266,35.1254222 19.6642266,34.477684 C19.6642266,33.9176698 19.2095313,33.463533 18.6486016,33.463533 L3.99983594,33.463533 L3.99983594,9.0716816 Z M49.96875,38.271217 C49.96875,39.711717 48.7950938,40.8836698 47.3526016,40.8836698 L4.64739844,40.8836698 C3.20480469,40.8836698 2.03125,39.711717 2.03125,38.271217 L2.03125,35.4918349 L17.7977109,35.4918349 C18.2235625,36.7623632 19.4266719,37.6806769 20.8405234,37.6806769 L31.159375,37.6806769 C32.5732266,37.6806769 33.7764375,36.7623632 34.2021875,35.4918349 L49.96875,35.4918349 L49.96875,38.271217 Z" id="Shape" fill="#020288"></path>
                        <path d="M25.4295234,5.47428538 L26.5704766,5.47428538 C27.1314063,5.47428538 27.5861016,5.02014858 27.5861016,4.46013443 C27.5861016,3.90012028 27.1314063,3.44598349 26.5704766,3.44598349 L25.4295234,3.44598349 C24.8685938,3.44598349 24.4138984,3.90012028 24.4138984,4.46013443 C24.4138984,5.02014858 24.8685938,5.47428538 25.4295234,5.47428538 Z" id="Path" fill="#020288"></path>
                        <polygon id="Path" fill="#FFF59B" points="28.0549565 23.8518273 43.9755528 23.8518273 43.9755528 28.9158993 28.0549565 28.9158993"></polygon>
                        <polygon id="Path" fill="#FFF59B" points="28.0549565 15.0405899 43.9755528 15.0405899 43.9755528 20.1046619 28.0549565 20.1046619"></polygon>
                    </g>
                </g>
            </g>
        </g>
    </g>
</svg>